PathFileType	4	(X/Y/Z)	/Users/niels/Desktop/University/Third Semester/Perception and Action/Exam/Gymnastics Motion Tracking/Code for Gym Tracking/Analyzed Data/Webcam_Backflip/id7_3_baseline_Sports2D/id7_3_baseline_Sports2D_px_person00.trc
DataRate	CameraRate	NumFrames	NumMarkers	Units	OrigDataRate	OrigDataStartFrame	OrigNumFrames
29.810126582278482	29.810126582278482	12	22	m	29.810126582278482	118	158
Frame#	Time	Hip			RHip			RKnee			RAnkle			RBigToe			RSmallToe			RHeel			LHip			LKnee			LAnkle			LBigToe			LSmallToe			LHeel			Neck			Head			Nose			RShoulder			RElbow			RWrist			LShoulder			LElbow			LWrist		
		X1	Y1	Z1	X2	Y2	Z2	X3	Y3	Z3	X4	Y4	Z4	X5	Y5	Z5	X6	Y6	Z6	X7	Y7	Z7	X8	Y8	Z8	X9	Y9	Z9	X10	Y10	Z10	X11	Y11	Z11	X12	Y12	Z12	X13	Y13	Z13	X14	Y14	Z14	X15	Y15	Z15	X16	Y16	Z16	X17	Y17	Z17	X18	Y18	Z18	X19	Y19	Z19	X20	Y20	Z20	X21	Y21	Z21	X22	Y22	Z22
118	3.9583864118895966	0.9586059865192308	-0.508102957728516	0.0	0.9574248965922356	-0.5092982856283875	0.0	0.9684885441558885	-0.6227199475957242	0.0	0.9571683189239371	-0.7350164454491637	0.0	0.9944798999926142	-0.7666808718743471	0.0	0.9826798514763196	-0.7688198826992305	0.0	0.9514210256652257	-0.7540801120858162	0.0	0.9563130720010643	-0.5082416447051084	0.0	0.9678366845204687	-0.6213435712614565	0.0	0.9554726921720604	-0.727583234774326	0.0	0.9935192354397665	-0.7572377614278868	0.0	0.9891573390429933	-0.7544622512002999	0.0	0.9460374400725975	-0.7427297860324118	0.0	0.9652792163689994	-0.36130455671353	0.0	0.9682547711249528	-0.29066051223103256	0.0	0.9759410887460617	-0.33004508347013556	0.0	0.9510557228450969	-0.37877277890840966	0.0	0.9493043498558841	-0.4498858156886459	0.0	0.9829736929812511	-0.5113991704831157	0.0	0.9737173268590279	-0.38464163748087743	0.0	0.9796928919920748	-0.45118470507580904	0.0	1.0194444700894885	-0.505167256629787	0.0
119	3.991932059447983	0.9589971898675316	-0.4979351658724034	0.0	0.9577159092252175	-0.49934742189908715	0.0	0.9689411907866009	-0.6128610273452175	0.0	0.959440231940956	-0.7258459942044573	0.0	0.9958693537096177	-0.7602452996318673	0.0	0.9838656819444273	-0.7623320491414164	0.0	0.9534550403968506	-0.7449400318419533	0.0	0.956315550162178	-0.4984046975113347	0.0	0.9677944167876363	-0.6117149028022139	0.0	0.9571327073488881	-0.7187239097081731	0.0	0.9943061459004543	-0.750362819938644	0.0	0.9902507392189295	-0.7473398059551194	0.0	0.9472401056275135	-0.73385836187034	0.0	0.9661187821216217	-0.3511948401103653	0.0	0.9683591698581114	-0.280085525814377	0.0	0.9761561924221361	-0.32007244922651906	0.0	0.9512691394254793	-0.36788355531766936	0.0	0.9481613088938855	-0.43835503799981035	0.0	0.9794570009089062	-0.5008134236196259	0.0	0.9757016655850396	-0.37494362350816335	0.0	0.9815595197528428	-0.44161442801265705	0.0	1.0217067314153432	-0.495468628744659	0.0
120	4.025477707006369	0.959554048072532	-0.4919425692665477	0.0	0.9582006276669139	-0.49354142978223664	0.0	0.9692939193687111	-0.6068646750065151	0.0	0.9612214503811486	-0.7200832770745994	0.0	0.9970033427497746	-0.7561842060909334	0.0	0.9848785390427724	-0.7583261760244243	0.0	0.9551865660073928	-0.7390846933439055	0.0	0.9566018960165855	-0.49258117054420986	0.0	0.9678071561313262	-0.6058874927852297	0.0	0.9585450719401719	-0.7132816238667784	0.0	0.9954027514440693	-0.74604611193679	0.0	0.9916381664208784	-0.7428160767624916	0.0	0.9483001857741113	-0.7283370748775239	0.0	0.966918920069669	-0.34499682397674736	0.0	0.9688823442424874	-0.27365628653896756	0.0	0.9767363379493416	-0.3139018446472618	0.0	0.9513179824196666	-0.36111214187853125	0.0	0.946825021032439	-0.4309964180391693	0.0	0.9756497635041911	-0.4942631481404995	0.0	0.977475222173978	-0.3691380919727635	0.0	0.9828848140045539	-0.43598069415252033	0.0	1.0228582350000324	-0.4897729025907343	0.0
121	4.059023354564756	0.9603176661676841	-0.4902549145747816	0.0	0.9588643997804212	-0.4919497349359445	0.0	0.9695515456055398	-0.6049629539018423	0.0	0.9624198477264048	-0.7180707416101734	0.0	0.9977321637394133	-0.7547910874371911	0.0	0.9855229339591363	-0.7570908906147437	0.0	0.9565418707796013	-0.7370111518939991	0.0	0.9572869972776955	-0.4908520333026609	0.0	0.9679481917102387	-0.6040123925603776	0.0	0.9595211383262516	-0.7114549489807432	0.0	0.9964901682799707	-0.7445609330070148	0.0	0.9930602696249797	-0.7411837766067778	0.0	0.949010856755919	-0.7265160822793256	0.0	0.9676162007343216	-0.3428501390064952	0.0	0.9697535349514581	-0.2714560854941558	0.0	0.9775311107586374	-0.3116660655489483	0.0	0.9511851023933692	-0.35865945541785565	0.0	0.945412307738301	-0.4280324586641111	0.0	0.9717526335942984	-0.4920763348647975	0.0	0.9790443341758241	-0.3672984299997528	0.0	0.9836648979889416	-0.4342966939872184	0.0	1.02298146651316	-0.4881637623431802	0.0
122	4.092569002123142	0.9613494765691164	-0.49290188700359605	0.0	0.9596794453738741	-0.4945417414456251	0.0	0.9696952243775686	-0.6072544863516844	0.0	0.9629967909827776	-0.7200042990930074	0.0	0.9978620686124413	-0.7563951485704417	0.0	0.9855151172927503	-0.758923470356511	0.0	0.9573625513462111	-0.7390106878171958	0.0	0.9586834388481411	-0.49327561151386995	0.0	0.9683038146308645	-0.6061889862577772	0.0	0.9600071391385551	-0.7133914318546027	0.0	0.9972639917720889	-0.7462210494778942	0.0	0.9942978964772045	-0.7427738947099815	0.0	0.9492623527554359	-0.7285888765594848	0.0	0.968234520512942	-0.3447498211849113	0.0	0.9708434932293	-0.2734618606093637	0.0	0.9783999180020228	-0.3134416672991012	0.0	0.95095330331639	-0.36063364737368464	0.0	0.9440131231141168	-0.4295994693830448	0.0	0.9679024288545165	-0.49442640403304033	0.0	0.9804857305660292	-0.36939369098575264	0.0	0.983969739596952	-0.4365080063164372	0.0	1.022158652283376	-0.49059748941118325	0.0
123	4.126114649681528	0.9627243162293885	-0.4997742222679318	0.0	0.9606228848006921	-0.5012225081422511	0.0	0.9696885988449139	-0.613666864434935	0.0	0.9629098713138347	-0.72584088215815	0.0	0.9972924092623011	-0.7611079108605541	0.0	0.9846910155169852	-0.7638863066331609	0.0	0.9574328959927461	-0.7450158627755308	0.0	0.9611639192377489	-0.4998531464387354	0.0	0.9689386753783942	-0.6124217715187152	0.0	0.9600660710492506	-0.7191499240265734	0.0	0.9976028767046271	-0.7511924252553545	0.0	0.9952559742790071	-0.7477386383114046	0.0	0.9490890259662362	-0.7345202350740266	0.0	0.9688433861399169	-0.3505943521875982	0.0	0.972027354149698	-0.27956194602941625	0.0	0.9792404051740166	-0.3192084380063175	0.0	0.9507275531163363	-0.3669922460080135	0.0	0.9426644359589412	-0.43574809973663076	0.0	0.9640554295594463	-0.5012487571564496	0.0	0.9819215076278326	-0.37530955330905014	0.0	0.9839401809499366	-0.44256215564321955	0.0	1.0204587195727592	-0.4969943299603556	0.0
124	4.159660297239915	0.9644689712819027	-0.510551575277638	0.0	0.9616613933211011	-0.5117357357615184	0.0	0.969466398128609	-0.6238947183774575	0.0	0.962125600937696	-0.735264050083266	0.0	0.9960779698144705	-0.7687471142280512	0.0	0.9831273276627402	-0.7717303693979161	0.0	0.9566172408184014	-0.7545478480873854	0.0	0.9648354533086082	-0.5103834334150835	0.0	0.9698373180434328	-0.6224854420041293	0.0	0.9598099238236165	-0.7285679479061168	0.0	0.9975358725085411	-0.759346246637171	0.0	0.9958964920186696	-0.7558817666074397	0.0	0.9486233591366832	-0.7440079109182759	0.0	0.9694698764216413	-0.3601927288604292	0.0	0.9732038822304598	-0.28952867422238326	0.0	0.9800312172205097	-0.32877002296960506	0.0	0.9505824784751393	-0.3774689255966298	0.0	0.941386255767343	-0.4462943737708092	0.0	0.9600781592825447	-0.5122175847593852	0.0	0.9833556169143275	-0.38481622303800506	0.0	0.983756747253475	-0.45231362817985765	0.0	1.0179746036085384	-0.5072699529417961	0.0
125	4.193205944798302	0.9664952681997666	-0.524668776259128	0.0	0.9627314355849552	-0.5255555393153074	0.0	0.9689478100988093	-0.6373393153838598	0.0	0.9606955510426702	-0.7476889762706661	0.0	0.9943757211909022	-0.7788725315926035	0.0	0.9810797040907309	-0.7819446966549468	0.0	0.9549859546582392	-0.7668087514297021	0.0	0.9693395916321598	-0.5243507763798125	0.0	0.9709029497481376	-0.6358207995862593	0.0	0.9593861626555522	-0.7411300170734987	0.0	0.9971517167586857	-0.770211080898393	0.0	0.9961814676885675	-0.7666527415882838	0.0	0.9481051131704243	-0.7564699060629378	0.0	0.970081099773573	-0.3731815122426546	0.0	0.97429057840072	-0.30296462255142587	0.0	0.9808460766331729	-0.3417037283629014	0.0	0.9505682903658408	-0.3915607548777262	0.0	0.9402189634305825	-0.46071548681225044	0.0	0.9559642796844351	-0.5268077836814509	0.0	0.9846155501791871	-0.3975102917769135	0.0	0.9835487223426616	-0.4653632572419888	0.0	1.0147936225326353	-0.5212100796714823	0.0
126	4.226751592356687	0.9685880043461251	-0.5413084460327596	0.0	0.9637136180153172	-0.5418698865364392	0.0	0.9680751322179025	-0.6531140868700531	0.0	0.9588008567524076	-0.7622892929927129	0.0	0.9923458103581622	-0.7908361102761264	0.0	0.9788236832551217	-0.7938268898300634	0.0	0.9528152908881712	-0.7808344463804099	0.0	0.9739894454940016	-0.5409054778788244	0.0	0.9720404289511154	-0.6515496653403454	0.0	0.9589909737150927	-0.7559762655636014	0.0	0.9965438476659778	-0.7830273881561988	0.0	0.9960945104174682	-0.7792641825517459	0.0	0.9478959060647226	-0.7710547953372217	0.0	0.9706410939149309	-0.3889033806056423	0.0	0.9751855958593292	-0.3191971266920205	0.0	0.9817452676441712	-0.3573221260391927	0.0	0.9507013606092936	-0.4085292267438711	0.0	0.9392134069400221	-0.4781503649446819	0.0	0.9518806974140341	-0.5443184187814382	0.0	0.9855119500110927	-0.41274981251133364	0.0	0.9833123522708545	-0.480994426291944	0.0	1.0109256821961528	-0.5382809675483317	0.0
127	4.260297239915074	0.9704658203867171	-0.5593771958810437	0.0	0.9644321896057501	-0.5596249836789319	0.0	0.9668436205459182	-0.6701011597339879	0.0	0.9566859428045509	-0.7779971094358938	0.0	0.9900655307608697	-0.8037938546746439	0.0	0.976506129877087	-0.8064998209399811	0.0	0.9504481475423643	-0.7955257560803769	0.0	0.9780873535985144	-0.5589036098121086	0.0	0.9732188002718811	-0.6685507745274156	0.0	0.9588139827702475	-0.7719706144026388	0.0	0.9957543423178892	-0.7967985186669845	0.0	0.9956489797113868	-0.7927636883744337	0.0	0.9483460409831058	-0.7866157799767064	0.0	0.9711457019818839	-0.40634006568665476	0.0	0.9757566913318052	-0.33720553821683075	0.0	0.9826571717498821	-0.3746352518030934	0.0	0.9509426307692879	-0.4273424513800651	0.0	0.9383915661467607	-0.4974119986238288	0.0	0.9480270925536154	-0.5637543364663001	0.0	0.986005498325661	-0.4296073501504276	0.0	0.9829077764549368	-0.49818830018575566	0.0	1.0063414499581194	-0.5575269873905849	0.0
128	4.293842887473461	0.9718868995309295	-0.57749175225132	0.0	0.9647260411892087	-0.5775477749084333	0.0	0.9653062449673421	-0.6869893736958305	0.0	0.9545500986296597	-0.7935053180833049	0.0	0.9875529313371316	-0.8166830741982916	0.0	0.9741379901380828	-0.818905247457547	0.0	0.9481420106136589	-0.8096119433817319	0.0	0.9811804303733151	-0.5769640172585686	0.0	0.9744312831785599	-0.6855066432676677	0.0	0.9589271063842377	-0.7877362176066206	0.0	0.9947708811852689	-0.8103220156320928	0.0	0.9948815424589821	-0.8060297857450952	0.0	0.9495706813738259	-0.8017023687434948	0.0	0.9716138161754483	-0.42416250208538947	0.0	0.9759375356058105	-0.3556702819877057	0.0	0.9834322873555228	-0.39235709793271006	0.0	0.951203781442459	-0.44661997973031814	0.0	0.9377118366152865	-0.5169968770303965	0.0	0.9445077703413748	-0.5836650360722719	0.0	0.9862054777431737	-0.4468696921315593	0.0	0.9821463262874836	-0.5156619760013854	0.0	1.0011176850992733	-0.5775379388974146	0.0
129	4.327388535031847	0.9727359919203065	-0.5940874049358308	0.0	0.9645254972176357	-0.5941992132392151	0.0	0.9635497111351589	-0.7023712304577132	0.0	0.9525146500682874	-0.807432967343915	0.0	0.984890687977102	-0.8283333745195763	0.0	0.9717158871845214	-0.8299442267996077	0.0	0.9460182887850002	-0.8218431284053146	0.0	0.9831672935412665	-0.5935908709813651	0.0	0.9755923404617627	-0.7010011530086839	0.0	0.9592337639630424	-0.8018191178942427	0.0	0.9936148870538676	-0.8223508864620243	0.0	0.9938924730224915	-0.8178637027418606	0.0	0.9513176263461618	-0.8148312180663069	0.0	0.9720711085463934	-0.4408824621588758	0.0	0.9758375971327898	-0.3730938874346583	0.0	0.983970346960138	-0.40899562964646313	0.0	0.9513705121093361	-0.4647088441832864	0.0	0.9370627612410145	-0.5352045622165247	0.0	0.9412916356372548	-0.6022261980870844	0.0	0.9863052586771374	-0.4631213142594965	0.0	0.9809831915708466	-0.5319959490517828	0.0	0.9955336355062129	-0.5964871702386436	0.0
